<svg xmlns="http://www.w3.org/2000/svg" viewBox="0 0 1546.05 488.47"><defs><style>.cls-1,.cls-2{fill:none;}.cls-1,.cls-2,.cls-3{stroke:#000;}.cls-2{stroke-width:5.29px;}.cls-4,.cls-5,.cls-8{isolation:isolate;}.cls-5,.cls-6{font-size:48px;}.cls-5,.cls-6,.cls-8,.cls-9{font-family:Verdana, Verdana;}.cls-7,.cls-8,.cls-9{font-size:36px;}.cls-10,.cls-7{font-family:MyriadPro-Regular, Myriad Pro;}.cls-10,.cls-8,.cls-9{fill:#515151;}.cls-10{font-size:21px;}</style></defs><title>staff-guitar</title><g id="clef"><g id="lines"><path id="fi" class="cls-1" d="M25.08,140.24,1544,141"/><path id="fo" class="cls-1" d="M25.08,162.2l1518.92.72"/><path id="t" class="cls-1" d="M25.08,184l1518.92.72"/><path id="s" class="cls-1" d="M25.08,206.19l1518.92.72"/><path id="f" class="cls-1" d="M25.08,228l1518.92.72"/></g><path id="bar" class="cls-2" d="M23.16,139.53v89.06"/><g id="treble"><path id="path1204" class="cls-3" d="M48.12,251c0,7.79,17.07,6.8,17-6,0-12.51-16.28-82.52-16.46-95.92-.2-10.62,5.55-22.53,10.47-22.4,3.9.13,7.56,9.08,7.54,20.21.3,36-30.82,33.7-30.82,58.31,0,15.91,13,20.11,19.54,20.11,22.06-.14,18.36-27,4.3-27-8.29-.3-15.55,11.1-4.59,20.56-18.51-8.26-8.59-28.22,6.07-28.37,19.54.15,22.94,36.47-5.78,36.62C38.22,227.27,31,212,31.11,200c0-23.12,33.61-36.47,33.17-56,0-12.3-12.59-6.75-12.88,13.06.29,12.31,16,77.29,15.84,87.35,0,20.71-26.21,14-26.21,3.45.15-15,15.4-4.35,10.66-3.9C48,250.51,48.12,251,48.12,251Z"/><path id="path1205" class="cls-3" d="M55.22,244.49a6.4,6.4,0,1,1-6.5-6.3h.11A6.36,6.36,0,0,1,55.22,244.49Z"/><path id="path1206" d="M62.17,223.89h2.1V226h-2.1Z"/><path id="path1207" d="M56.05,191.42h2.66v6.72H56.05Z"/><path id="path1208" d="M51.33,166.44l1.26-.22,1.78,11.9-1.27.22Z"/></g></g><g id="notes" class="cls-4"><g id="note"><g id="E"><path id="lE3" class="cls-1" d="M109.44,291.19h50"/><path id="lE2" class="cls-1" d="M109.44,270.19h50"/><path id="lE1" class="cls-1" d="M109.44,248.85h50"/><path d="M134.44,291.13c-9.66,0-17.49,5.8-17.49,13s7.83,13,17.49,13,17.49-5.8,17.49-13S144.1,291.13,134.44,291.13Zm2.63,22.53a6.69,6.69,0,0,1-8.23-4.68l-1.71-6.22A6.69,6.69,0,1,1,140,299.2l1.72,6.22A6.7,6.7,0,0,1,137.07,313.66Z"/></g><g id="B"><path id="lB1" class="cls-1" d="M310.44,248.85h50"/><path d="M335.44,249.13c-9.66,0-17.49,5.8-17.49,13s7.83,13,17.49,13,17.49-5.8,17.49-13S345.1,249.13,335.44,249.13Zm2.64,22.53a6.71,6.71,0,0,1-8.24-4.68l-1.71-6.22A6.7,6.7,0,1,1,341,257.2l1.71,6.22A6.7,6.7,0,0,1,338.08,271.66Z"/></g><g id="c"><path id="lc1" class="cls-1" d="M494.44,248.85h50"/><g id="middlec"><path d="M473.91,312.37V297.49H476v14.88Zm4-6.08-1.62-6.16h-.6v-2.64h1.48l1.62,6.39h.08l.21,2.41Zm.61,0,.31-2.41H479l1.61-6.39H482v2.64h-.61l-1.61,6.16Zm3.2,6.08V297.49h2.1v14.88Z"/><path d="M486.82,312.37v-1.95h4.44v1.95Zm.63-9.16v-1.95h5.82v1.95Zm4.64-3.71a1.54,1.54,0,0,1-1.55-1.53v0a1.48,1.48,0,0,1,.45-1.1,1.52,1.52,0,0,1,1.1-.45,1.54,1.54,0,0,1,1.55,1.53v0a1.52,1.52,0,0,1-.45,1.1,1.48,1.48,0,0,1-1.1.45Zm-1,12.87V301.89h2.22v10.48Zm2,0v-1.95h3.63v1.95Z"/><path d="M503.16,312.58a3.94,3.94,0,0,1-3.31-1.43,6.82,6.82,0,0,1-1.13-4.23,7.21,7.21,0,0,1,1.13-4.38,3.9,3.9,0,0,1,3.31-1.49,3.25,3.25,0,0,1,2,.59,2.33,2.33,0,0,1,.92,1.64H507l-.65,3.16a4.22,4.22,0,0,0-.68-2.61,2.35,2.35,0,0,0-2-.89,2.31,2.31,0,0,0-2,1,5.17,5.17,0,0,0-.7,3,4.67,4.67,0,0,0,.7,2.82,2.65,2.65,0,0,0,3.72.34,2.37,2.37,0,0,0,.28-.27,4.22,4.22,0,0,0,.68-2.61l.76,3.16h-1a2.22,2.22,0,0,1-.88,1.64A3.31,3.31,0,0,1,503.16,312.58Zm3.38-.1-.23-2.18V296.65h2.22v15.72Z"/><path d="M515.73,312.58a3.94,3.94,0,0,1-3.3-1.43,6.82,6.82,0,0,1-1.13-4.23,7.21,7.21,0,0,1,1.13-4.38,3.88,3.88,0,0,1,3.3-1.49,3.33,3.33,0,0,1,2,.59,2.33,2.33,0,0,1,.92,1.64h.86l-.65,3.16a4.29,4.29,0,0,0-.68-2.61,2.6,2.6,0,0,0-3.67-.23,2.73,2.73,0,0,0-.33.35,5.32,5.32,0,0,0-.69,3,4.75,4.75,0,0,0,.69,2.82,2.65,2.65,0,0,0,3.73.33,2.23,2.23,0,0,0,.27-.26,4.29,4.29,0,0,0,.68-2.61l.75,3.16h-1a2.23,2.23,0,0,1-.89,1.64A3.35,3.35,0,0,1,515.73,312.58Zm3.39-.1-.23-2.18V296.65h2.22v15.72Z"/><path d="M523.9,298.6v-2h3.46v2Zm6.92,14a3.42,3.42,0,0,1-2.79-1,5.25,5.25,0,0,1-.86-3.36V296.65h2.22v11.43a5.33,5.33,0,0,0,.17,1.43,1.3,1.3,0,0,0,.65.82,3.23,3.23,0,0,0,1.44.26,8,8,0,0,0,2.23-.4l.25,1.95a12.74,12.74,0,0,1-1.63.34,13.52,13.52,0,0,1-1.68.1Z"/><path d="M542.7,312.58a6.08,6.08,0,0,1-4.39-1.49,5.67,5.67,0,0,1-1.54-4.29,6.24,6.24,0,0,1,1.31-4.24,4.66,4.66,0,0,1,3.7-1.51,4.43,4.43,0,0,1,3.48,1.37,5.73,5.73,0,0,1,1.24,4,9.06,9.06,0,0,1-.07,1.42h-7.8v-1.69h5.85a3.29,3.29,0,0,0-.71-2.3,2.48,2.48,0,0,0-2-.81,2.7,2.7,0,0,0-2.2,1,4.2,4.2,0,0,0-.78,2.72,3.82,3.82,0,0,0,1.08,2.94,4.29,4.29,0,0,0,3,1,12.57,12.57,0,0,0,1.37-.07c.44-.06.9-.13,1.36-.22l.27,2a13.65,13.65,0,0,1-1.8.24A9,9,0,0,0,542.7,312.58Z"/><path d="M568.44,312.58q-6.93,0-6.94-7.67a8.29,8.29,0,0,1,1.75-5.63,6.23,6.23,0,0,1,4.94-2,6.64,6.64,0,0,1,2.68.49,3.45,3.45,0,0,1,1.67,1.39L571,300.7a3.28,3.28,0,0,0-2.78-1.49,4,4,0,0,0-3.24,1.46,6.21,6.21,0,0,0-1.22,4.14q0,5.85,5,5.85a7.58,7.58,0,0,0,3-.63l.49,1.84A10.55,10.55,0,0,1,568.44,312.58Z"/></g><path d="M519.44,237.13c-9.66,0-17.49,5.8-17.49,13s7.83,13,17.49,13,17.49-5.8,17.49-13S529.1,237.13,519.44,237.13Zm2.63,22.53a6.7,6.7,0,0,1-8.23-4.68l-1.71-6.22A6.69,6.69,0,1,1,525,245.2l1.72,6.22A6.71,6.71,0,0,1,522.07,259.66Z"/></g><path id="b-2" data-name="b" d="M708.37,171.73c-9.66,0-17.49,5.8-17.49,13s7.83,13,17.49,13,17.49-5.8,17.49-13S718,171.73,708.37,171.73ZM711,194.24a6.69,6.69,0,0,1-8.23-4.68l-1.72-6.21A6.7,6.7,0,1,1,714,179.79l1.72,6.22A6.69,6.69,0,0,1,711,194.24Z"/><path id="cq" d="M894.87,160.62c-9.66,0-17.49,5.8-17.49,13s7.83,13,17.49,13,17.49-5.8,17.49-13S904.53,160.62,894.87,160.62Zm2.63,22.51a6.7,6.7,0,0,1-8.23-4.68l-1.71-6.22a6.69,6.69,0,1,1,12.9-3.56l1.72,6.22A6.71,6.71,0,0,1,897.5,183.13Z"/><g id="bq"><path id="lbq1" class="cls-1" d="M1057.87,118.85h50"/><path d="M1082.87,92.13c-9.66,0-17.49,5.8-17.49,13s7.83,13,17.49,13,17.49-5.8,17.49-13S1092.53,92.13,1082.87,92.13Zm2.63,22.52h0a6.7,6.7,0,0,1-8.24-4.68l-1.71-6.22a6.71,6.71,0,0,1,4.67-8.24h0a6.71,6.71,0,0,1,8.24,4.68l1.71,6.22A6.69,6.69,0,0,1,1085.5,114.65Z"/></g><g id="cqq"><path d="M1268.16,84c-9.66,0-17.49,5.8-17.49,13s7.83,13,17.49,13,17.49-5.8,17.49-13S1277.82,84,1268.16,84Zm2.63,22.51h0a6.7,6.7,0,0,1-8.23-4.68l-1.72-6.22a6.7,6.7,0,0,1,4.68-8.24h0a6.69,6.69,0,0,1,8.23,4.68l1.72,6.22A6.7,6.7,0,0,1,1270.79,106.47Z"/><path id="lcqq1" class="cls-1" d="M1243.06,118h50"/><path id="lcqq2" class="cls-1" d="M1243.06,97h50"/></g><g id="bqq"><path id="lbqq3" class="cls-1" d="M1433.73,76.05h50"/><path id="lbqq2" class="cls-1" d="M1433.73,97.39h50"/><path id="lbqq1" class="cls-1" d="M1433.73,118.39h50"/><path id="lbqq4" class="cls-1" d="M1433.73,53.39h50"/><path id="lbqq5" class="cls-1" d="M1433.73,32.05h50"/><path d="M1458.73,19.33c-9.66,0-17.49,5.8-17.49,13s7.83,13,17.49,13,17.49-5.8,17.49-13S1468.39,19.33,1458.73,19.33Zm2.64,22.51h0a6.69,6.69,0,0,1-8.23-4.68l-1.72-6.22a6.71,6.71,0,0,1,4.68-8.24h0a6.7,6.7,0,0,1,8.23,4.68L1466,33.6A6.69,6.69,0,0,1,1461.37,41.84Z"/></g></g><g id="Layer_4" data-name="Layer 4"><text class="cls-5" transform="translate(1441.67 470.2)">b’’</text><text class="cls-6" transform="translate(1249.99 470.2)">c’’</text><text class="cls-5" transform="translate(865.37 470.2)">c’</text><text class="cls-5" transform="translate(1055.37 470.2)">b’</text><text class="cls-5" transform="translate(115.37 470.2)">E</text><text class="cls-5" transform="translate(319.87 470.2)">B</text><text class="cls-5" transform="translate(502.87 470.2)">c</text><text class="cls-5" transform="translate(690.87 470.2)">b</text><text class="cls-7" transform="translate(12.16 469.48)">Guitar</text></g><g id="Layer_4_copy" data-name="Layer 4 copy"><text class="cls-8" transform="translate(1444.67 397.2)">b’’’</text><text class="cls-9" transform="translate(1252.99 397.2)">c’’’</text><text class="cls-8" transform="translate(868.37 397.2)">c’’</text><text class="cls-8" transform="translate(1056.37 397.2)">b’’</text><text class="cls-8" transform="translate(119.37 397.2)">e</text><text class="cls-8" transform="translate(322.87 397.2)">b</text><text class="cls-8" transform="translate(505.87 397.2)">c’</text><text class="cls-8" transform="translate(691.87 397.2)">b’</text><text class="cls-10" transform="translate(15.16 394.48)">Helmholtz</text></g></g></svg>